<?xml version="1.0" standalone="no"?>
<!DOCTYPE svg PUBLIC "-//W3C//DTD SVG 1.1//EN"
  "http://www.w3.org/Graphics/SVG/1.1/DTD/svg11.dtd">
<svg width="193mm" height="100mm" viewBox="-95 -56 193 100" xmlns="http://www.w3.org/2000/svg" version="1.1">
	<title>svgOutput</title>
	<desc>made with tinkercad</desc>
<path d="M -57 43 L -57 42.78599548339844 L -57 42.78434371948242 L -57 41.995094299316406 L -57 41.99422836303711 L -57 41.58481216430664 L -57 41.584659576416016 L -57 41.56451416015625 L -56.79783248901367 41.496826171875 L -56.79759979248047 41.49674987792969 L -56.72919845581055 41.45684814453125 L -55.876224517822266 40.959999084472656 L -55.318450927734375 40.635101318359375 L -55.25659942626953 40.58095169067383 L -53.9817008972168 39.464698791503906 L -53.92829895019531 39.39799880981445 L -52.828208923339844 38.02241134643555 L -52.82820129394531 38.02239990234375 L -52.7849006652832 37.945098876953125 L -52.17927932739258 36.86399841308594 L -51.89189910888672 36.35100173950195 L -51.86000061035156 36.26544952392578 L -51.202598571777344 34.50225067138672 L -51.183048248291016 34.41109848022461 L -50.83083724975586 32.768001556396484 L -50.78030776977539 32.53227233886719 L -50.780250549316406 32.53200149536133 L -50.77370071411133 32.4379997253418 L -50.63785171508789 30.5 L -50.64440155029297 30.4060001373291 L -50.76594924926758 28.672000885009766 L -50.780242919921875 28.46807861328125 L -50.780250549316406 28.468000411987305 L -50.799800872802734 28.376850128173828 L -51.20259475708008 26.497770309448242 L -51.202598571777344 26.49774932861328 L -51.234500885009766 26.412200927734375 L -51.89189910888672 24.64900016784668 L -51.93279266357422 24.576000213623047 L -51.93519973754883 24.571699142456055 L -52.82806396484375 22.97784423828125 L -52.82820129394531 22.97760009765625 L -52.88159942626953 22.910900115966797 L -53.24800109863281 22.452741622924805 L -53.981689453125 21.535310745239258 L -53.9817008972168 21.53529930114746 L -54.043548583984375 21.481149673461914 L -55.318450927734375 20.364900588989258 L -55.38684844970703 20.325000762939453 L -56.79750061035156 19.503307342529297 L -56.79759979248047 19.503250122070312 L -56.870548248291016 19.478849411010742 L -57 19.435508728027344 L -57 19.41607666015625 L -57 19.415298461914062 L -57 19.363750457763672 L -57 19.00563621520996 L -57 19.004344940185547 L -57 18.92715072631836 L -57 18.926326751708984 L -57 18.385929107666016 L -57 18.214229583740234 L -57 18.08551025390625 L -57 18.08384132385254 L -57 17.99799919128418 L -57 15 L -62.66699981689453 15 L -94 15 L -89.97128295898438 9 L -93 9 L -83.78150177001953 -0.21849726140499104 L -83.15361785888672 -1.1536153554916382 L -82.58531188964844 -2 L -84 -2 L -86 -2 L -85 -3 L -79.66699981689453 -8.333000183105469 L -76 -12 L -75.92284393310547 -11.922845840454102 L -75.19966888427734 -13 L -77 -13 L -79 -13 L -69 -23 L -68.6923828125 -22.692384719848633 L -67.8144760131836 -24 L -70 -24 L -72 -24 L -71 -25 L -64.33300018310547 -31.66699981689453 L -62 -34 L -61.46184539794922 -33.46184539794922 L -60.42905044555664 -35 L -63 -35 L -65 -35 L -64 -36 L -57 -43 L -55 -45 L -54.23092269897461 -44.23092269897461 L -49.00299835205078 -52.01691436767578 L -49.00299835205078 -31.66699981689453 L -49.00299835205078 -8.333000183105469 L -49.00299835205078 2.003000020980835 L -45.99800109863281 2.003000020980835 L -45.99800109863281 -8.333000183105469 L -45.99800109863281 -31.66699981689453 L -45.99800109863281 -53.507713317871094 L -42.912601470947266 -48.912601470947266 L -39.76907730102539 -44.23092269897461 L -39 -45 L -37 -43 L -29 -35 L -33 -35 L -33.57094955444336 -35 L -32.53815460205078 -33.46184539794922 L -32 -34 L -29.66699981689453 -31.66699981689453 L -22 -24 L -26 -24 L -26.185523986816406 -24 L -25.307615280151367 -22.692384719848633 L -25 -23 L -15 -13 L -18.800334930419922 -13 L -18.392410278320312 -12.392410278320312 L -18.0771541595459 -11.922845840454102 L -18 -12 L -14.333000183105469 -8.333000183105469 L -8 -2 L -11 -2 L -11.414691925048828 -2 L -11.248102188110352 -1.7518974542617798 L -11 -2 L -1 8 L -4.700167179107666 8 L -4.028714656829834 9 L 0 15 L -31.33300018310547 15 L -37 15 L -37 17.99799919128418 L -37 18.66979217529297 L -37 19.508689880371094 L -37 19.510257720947266 L -37 19.946012496948242 L -37 19.946327209472656 L -37 19.96790313720703 L -37.681549072265625 20.364900588989258 L -37.74340057373047 20.419050216674805 L -39.0182991027832 21.53529930114746 L -39.07170104980469 21.601999282836914 L -40.171791076660156 22.977588653564453 L -40.17179870605469 22.97760009765625 L -40.2150993347168 23.054899215698242 L -40.959999084472656 24.384626388549805 L -41.06720733642578 24.576000213623047 L -41.10810089111328 24.64900016784668 L -41.13999938964844 24.73455047607422 L -41.797401428222656 26.49774932861328 L -41.816951751708984 26.588899612426758 L -42.21969223022461 28.467727661132812 L -42.219749450683594 28.468000411987305 L -42.22629928588867 28.562000274658203 L -42.234012603759766 28.672000885009766 L -42.36214828491211 30.5 L -42.35559844970703 30.5939998626709 L -42.219757080078125 32.53192138671875 L -42.219749450683594 32.53200149536133 L -42.200199127197266 32.62314987182617 L -42.169151306152344 32.768001556396484 L -41.79740524291992 34.50223159790039 L -41.797401428222656 34.50225067138672 L -41.765499114990234 34.587799072265625 L -41.10810089111328 36.35100173950195 L -41.06480026245117 36.42829895019531 L -40.959999084472656 36.615379333496094 L -40.17193603515625 38.02215576171875 L -40.17179870605469 38.02239990234375 L -40.11840057373047 38.0890998840332 L -39.018310546875 39.46468734741211 L -39.0182991027832 39.464698791503906 L -38.956451416015625 39.51884841918945 L -37.681549072265625 40.635101318359375 L -37.61315155029297 40.67499923706055 L -37.123870849609375 40.959999084472656 L -37 41.03215408325195 L -37 41.0533447265625 L -37 41.05370330810547 L -37 41.25531005859375 L -37 41.48930740356445 L -37 41.49076843261719 L -37 41.73871994018555 L -37 41.73898696899414 L -37 42.3309440612793 L -37 42.66648483276367 L -37 42.66722106933594 L -37 43 L -40.959999084472656 43 L -43.00299835205078 43 L -49.99800109863281 43 L -51.68275451660156 43 L -54.006893157958984 43 L -54.92359924316406 43 L -57 43 M 54.799800872802734 32.62314987182617 L 54.830848693847656 32.768001556396484 L 55.20259475708008 34.50223159790039 L 55.202598571777344 34.50225067138672 L 55.234500885009766 34.587799072265625 L 55.89189910888672 36.35100173950195 L 55.93519973754883 36.42829895019531 L 56.82806396484375 38.02215576171875 L 56.82820129394531 38.02239990234375 L 56.88159942626953 38.0890998840332 L 57.34400177001953 38.667301177978516 L 57.981689453125 39.46468734741211 L 57.9817008972168 39.464698791503906 L 58.043548583984375 39.51884841918945 L 59.318450927734375 40.635101318359375 L 59.38684844970703 40.67499923706055 L 59.876129150390625 40.959999084472656 L 60 41.03215408325195 L 60 41.0533447265625 L 60 41.05370330810547 L 60 41.25531005859375 L 60 41.48930740356445 L 60 41.49076843261719 L 60 41.73871994018555 L 60 41.73898696899414 L 60 42.3309440612793 L 60 42.333251953125 L 60 42.66648483276367 L 60 42.66722106933594 L 60 43 L 57.34400177001953 43 L 53.99800109863281 43 L 52.00299835205078 43 L 52.00299835205078 15 L 52.00299835205078 9 L 52.00299835205078 8 L 52.00299835205078 -2 L 52.00299835205078 -8.333000183105469 L 52.00299835205078 -13 L 52.00299835205078 -14.003000259399414 L 48.99800109863281 -14.003000259399414 L 48.99800109863281 -13 L 48.99800109863281 -9.82535171508789 L 48.99800109863281 -8.333000183105469 L 48.99800109863281 -2 L 48.99800109863281 8 L 48.99800109863281 9 L 48.99800109863281 15 L 48.99800109863281 43 L 47.00299835205078 43 L 45.31724548339844 43 L 42.07640075683594 43 L 40.959999084472656 43 L 40.5260009765625 43 L 40 43 L 40 42.78599548339844 L 40 42.78434371948242 L 40 42.292320251464844 L 40 42.29227828979492 L 40 41.995094299316406 L 40 41.99422836303711 L 40 41.89400100708008 L 40 41.58481216430664 L 40 41.584659576416016 L 40 41.56451416015625 L 40.20216751098633 41.496826171875 L 40.20240020751953 41.49674987792969 L 40.27080154418945 41.45684814453125 L 40.959999084472656 41.055397033691406 L 41.123775482177734 40.959999084472656 L 41.681549072265625 40.635101318359375 L 41.74340057373047 40.58095169067383 L 43.0182991027832 39.464698791503906 L 43.07170104980469 39.39799880981445 L 44.171791076660156 38.02241134643555 L 44.17179870605469 38.02239990234375 L 44.2150993347168 37.945098876953125 L 44.82072067260742 36.86399841308594 L 45.10810089111328 36.35100173950195 L 45.13999938964844 36.26544952392578 L 45.797401428222656 34.50225067138672 L 45.816951751708984 34.41109848022461 L 46.16916275024414 32.768001556396484 L 46.21969223022461 32.53227233886719 L 46.219749450683594 32.53200149536133 L 46.22629928588867 32.4379997253418 L 46.36214828491211 30.5 L 46.35559844970703 30.4060001373291 L 46.23405075073242 28.672000885009766 L 46.219757080078125 28.46807861328125 L 46.219749450683594 28.468000411987305 L 46.200199127197266 28.376850128173828 L 45.79740524291992 26.497770309448242 L 45.797401428222656 26.49774932861328 L 45.765499114990234 26.412200927734375 L 45.10810089111328 24.64900016784668 L 45.06720733642578 24.576000213623047 L 45.06480026245117 24.571699142456055 L 44.17193603515625 22.97784423828125 L 44.17179870605469 22.97760009765625 L 44.11840057373047 22.910900115966797 L 43.018310546875 21.535310745239258 L 43.0182991027832 21.53529930114746 L 42.956451416015625 21.481149673461914 L 41.81300735473633 20.479999542236328 L 41.681549072265625 20.364900588989258 L 41.61315155029297 20.325000762939453 L 40.959999084472656 19.94454574584961 L 40.20249938964844 19.503307342529297 L 40.20240020751953 19.503250122070312 L 40.129451751708984 19.478849411010742 L 40 19.435508728027344 L 40 19.41607666015625 L 40 19.415298461914062 L 40 19.363750457763672 L 40 19.00563621520996 L 40 19.004344940185547 L 40 18.92715072631836 L 40 18.926326751708984 L 40 18.216171264648438 L 40 18.08551025390625 L 40 18.08384132385254 L 40 17.99799919128418 L 40 15 L 34.33300018310547 15 L 3 15 L 7.028714656829834 9 L 4 9 L 5 8 L 13.218497276306152 -0.21849726140499104 L 13.84638500213623 -1.1536153554916382 L 14.414691925048828 -2 L 13 -2 L 11 -2 L 12 -3 L 17.33300018310547 -8.333000183105469 L 21 -12 L 21.0771541595459 -11.922845840454102 L 21.800334930419922 -13 L 20 -13 L 18 -13 L 28 -23 L 28.307615280151367 -22.692384719848633 L 29.185523986816406 -24 L 27 -24 L 25 -24 L 26 -25 L 32.66699981689453 -31.66699981689453 L 35 -34 L 35.53815460205078 -33.46184539794922 L 36.57094955444336 -35 L 34 -35 L 32 -35 L 33 -36 L 42 -45 L 42.76907730102539 -44.23092269897461 L 43.17079544067383 -44.82920455932617 L 45.98282241821289 -49.01717758178711 L 47.589691162109375 -51.410308837890625 L 49.196563720703125 -53.803436279296875 L 50 -55 L 54.087398529052734 -48.912601470947266 L 57.23092269897461 -44.23092269897461 L 58 -45 L 68 -35 L 64 -35 L 63.42905044555664 -35 L 64.46184539794922 -33.46184539794922 L 65 -34 L 67.33300018310547 -31.66699981689453 L 75 -24 L 71 -24 L 70.8144760131836 -24 L 71.6923828125 -22.692384719848633 L 72 -23 L 82 -13 L 78.19966888427734 -13 L 78.60758972167969 -12.392410278320312 L 78.92284393310547 -11.922845840454102 L 79 -12 L 82.66699981689453 -8.333000183105469 L 89 -2 L 86 -2 L 96 8 L 92.29983520507812 8 L 92.97128295898438 9 L 97 15 L 65.66699981689453 15 L 60 15 L 60 17.99799919128418 L 60 18.549348831176758 L 60 18.55057144165039 L 60 18.66979217529297 L 60 19.340688705444336 L 60 19.508689880371094 L 60 19.510257720947266 L 60 19.750530242919922 L 60 19.946012496948242 L 60 19.946327209472656 L 60 19.96790313720703 L 59.318450927734375 20.364900588989258 L 59.25659942626953 20.419050216674805 L 57.9817008972168 21.53529930114746 L 57.92829895019531 21.601999282836914 L 57.34400177001953 22.332626342773438 L 56.828208923339844 22.977588653564453 L 56.82820129394531 22.97760009765625 L 56.7849006652832 23.054899215698242 L 55.93279266357422 24.576000213623047 L 55.89189910888672 24.64900016784668 L 55.86000061035156 24.73455047607422 L 55.202598571777344 26.49774932861328 L 55.183048248291016 26.588899612426758 L 54.78030776977539 28.467727661132812 L 54.780250549316406 28.468000411987305 L 54.77370071411133 28.562000274658203 L 54.765987396240234 28.672000885009766 L 54.63785171508789 30.5 L 54.64440155029297 30.5939998626709 L 54.780242919921875 32.53192138671875 L 54.780250549316406 32.53200149536133 L 54.799800872802734 32.62314987182617 M 85.75189971923828 -1.7518974542617798 L 86 -2 L 85.58531188964844 -2 L 85.75189971923828 -1.7518974542617798 z" fill="none" stroke="rgb(0,0,255)" stroke-width="0.01mm" />
</svg>